<svg width="102" height="36" viewBox="0 0 102 36" fill="none" xmlns="http://www.w3.org/2000/svg">
<rect width="36" height="36" rx="14" fill="#F5B544"/>
<rect x="9" y="9" width="18" height="18" rx="9" fill="white"/>
<path d="M52.736 17.014C54.0853 17.7913 54.76 18.9647 54.76 20.534C54.76 21.8393 54.298 22.91 53.374 23.746C52.45 24.582 51.3133 25 49.964 25H43.43V9.6H49.502C50.822 9.6 51.9293 10.0107 52.824 10.832C53.7333 11.6387 54.188 12.6727 54.188 13.934C54.188 15.21 53.704 16.2367 52.736 17.014ZM49.502 12.438H46.466V15.826H49.502C49.9713 15.826 50.36 15.6647 50.668 15.342C50.9907 15.0193 51.152 14.616 51.152 14.132C51.152 13.648 50.998 13.2447 50.69 12.922C50.382 12.5993 49.986 12.438 49.502 12.438ZM49.964 22.162C50.4773 22.162 50.9027 21.9933 51.24 21.656C51.5773 21.304 51.746 20.864 51.746 20.336C51.746 19.8227 51.5773 19.3973 51.24 19.06C50.9027 18.708 50.4773 18.532 49.964 18.532H46.466V22.162H49.964ZM59.1882 20.666C59.5695 22.0447 60.6035 22.734 62.2902 22.734C63.3755 22.734 64.1969 22.3673 64.7542 21.634L67.0422 22.954C65.9569 24.5233 64.3582 25.308 62.2462 25.308C60.4275 25.308 58.9682 24.758 57.8682 23.658C56.7682 22.558 56.2182 21.172 56.2182 19.5C56.2182 17.8427 56.7609 16.464 57.8462 15.364C58.9315 14.2493 60.3249 13.692 62.0262 13.692C63.6395 13.692 64.9669 14.2493 66.0082 15.364C67.0642 16.4787 67.5922 17.8573 67.5922 19.5C67.5922 19.8667 67.5555 20.2553 67.4822 20.666H59.1882ZM59.1442 18.466H64.7542C64.5929 17.718 64.2555 17.1607 63.7422 16.794C63.2435 16.4273 62.6715 16.244 62.0262 16.244C61.2635 16.244 60.6329 16.442 60.1342 16.838C59.6355 17.2193 59.3055 17.762 59.1442 18.466ZM71.8855 20.666C72.2668 22.0447 73.3008 22.734 74.9875 22.734C76.0728 22.734 76.8941 22.3673 77.4515 21.634L79.7395 22.954C78.6541 24.5233 77.0555 25.308 74.9435 25.308C73.1248 25.308 71.6655 24.758 70.5655 23.658C69.4655 22.558 68.9155 21.172 68.9155 19.5C68.9155 17.8427 69.4581 16.464 70.5435 15.364C71.6288 14.2493 73.0221 13.692 74.7235 13.692C76.3368 13.692 77.6641 14.2493 78.7055 15.364C79.7615 16.4787 80.2895 17.8573 80.2895 19.5C80.2895 19.8667 80.2528 20.2553 80.1795 20.666H71.8855ZM71.8415 18.466H77.4515C77.2901 17.718 76.9528 17.1607 76.4395 16.794C75.9408 16.4273 75.3688 16.244 74.7235 16.244C73.9608 16.244 73.3301 16.442 72.8315 16.838C72.3328 17.2193 72.0028 17.762 71.8415 18.466ZM88.2404 16.728H85.7544V21.304C85.7544 21.6853 85.8497 21.964 86.0404 22.14C86.2311 22.316 86.5097 22.4187 86.8764 22.448C87.2431 22.4627 87.6977 22.4553 88.2404 22.426V25C86.2897 25.22 84.9111 25.0367 84.1044 24.45C83.3124 23.8633 82.9164 22.8147 82.9164 21.304V16.728H81.0024V14H82.9164V11.778L85.7544 10.92V14H88.2404V16.728ZM99.2696 23.636C98.1403 24.7507 96.7616 25.308 95.1336 25.308C93.5056 25.308 92.1269 24.7507 90.9976 23.636C89.8829 22.5067 89.3256 21.128 89.3256 19.5C89.3256 17.872 89.8829 16.5007 90.9976 15.386C92.1269 14.2567 93.5056 13.692 95.1336 13.692C96.7616 13.692 98.1403 14.2567 99.2696 15.386C100.399 16.5007 100.964 17.872 100.964 19.5C100.964 21.128 100.399 22.5067 99.2696 23.636ZM92.9996 21.678C93.5716 22.25 94.2829 22.536 95.1336 22.536C95.9843 22.536 96.6956 22.25 97.2676 21.678C97.8396 21.106 98.1256 20.38 98.1256 19.5C98.1256 18.62 97.8396 17.894 97.2676 17.322C96.6956 16.75 95.9843 16.464 95.1336 16.464C94.2829 16.464 93.5716 16.75 92.9996 17.322C92.4423 17.894 92.1636 18.62 92.1636 19.5C92.1636 20.38 92.4423 21.106 92.9996 21.678Z" fill="#091B3D"/>
</svg>
